<?xml version="1.0" encoding="UTF-8"?>
<svg id="Layer_1" data-name="Layer 1" xmlns="http://www.w3.org/2000/svg" width="48" height="35.1429" viewBox="0 0 48 35.1429">
  <g id="Logo">
    <path id="Background" d="M16.0567,0C7.203,0,0,7.203,0,16.0567v19.0862H31.9433c8.8537,0,16.0567-7.203,16.0567-16.0567V0H16.0567Z" fill="#5082ef"/>
    <path id="Logo_Mark" data-name="Logo Mark" d="M15.1804,12.2263c.4567,0,.7415,.0393,.8538,.1179,.1124,.0786,.1685,.2752,.1685,.5898,0,.2772,.0899,.4158,.2697,.4158,.0748,0,.3258-.1422,.7527-.4269,.322-.2172,.732-.3989,1.2303-.5449,.498-.1461,.9493-.2191,1.3538-.2191,.9511,0,1.8013,.3297,2.5503,.9887,.5691,.5019,1.0111,1.1347,1.3257,1.8987,.3295,.8015,.4943,1.6442,.4943,2.5279,0,1.8875-.6367,3.4418-1.9099,4.6625-.9813,.9513-2.0972,1.4269-3.3481,1.4269-.6367,0-1.292-.1499-1.9661-.4494-.1348-.0599-.2435-.0899-.3258-.0899-.2247,0-.3371,.2247-.3371,.6741,0,.5916,.1984,1.0185,.5955,1.2808,.3669,.2472,.5859,.4137,.6572,.4999,.0711,.086,.1068,.2303,.1068,.4326,0,.4494-.2511,.7957-.7528,1.0392-.5019,.2433-1.2097,.3652-2.1234,.3652-1.6254,0-3.0486-.3258-4.2693-.9775-.6218-.3297-.9325-.7378-.9325-1.2246,0-.2247,.0467-.3951,.1404-.5112,.0936-.1162,.2753-.2379,.5449-.3651,.3894-.1798,.6272-.5056,.7134-.9775,.086-.4719,.1517-1.8274,.1966-4.0671-.0525-1.8425-.1199-2.8761-.2022-3.1008-.03-.0748-.073-.1236-.1292-.1461-.0562-.0225-.2415-.0635-.5561-.1236-.2398-.0449-.4345-.1553-.5842-.3314-.1499-.1759-.2247-.3876-.2247-.6348,0-.2995,.1048-.5635,.3146-.792,.2096-.2284,.5505-.4512,1.0224-.6685,1.835-.8314,3.2919-1.2545,4.3704-1.2695Zm1.1122,4.2468l-.1685,3.0896c-.0076,.1274-.0113,.251-.0113,.3707,0,.2323,.1011,.4195,.3033,.5618,.2022,.1424,.4719,.2134,.8089,.2134,1.0336,0,1.5504-.85,1.5504-2.5503,0-1.101-.2174-1.8763-.6516-2.3257-.2696-.277-.5918-.4157-.9662-.4157-.5319,0-.8201,.3521-.8651,1.0561Zm21.305-7.5499v10.2575c0,.5842,.0242,.9588,.073,1.1235,.0486,.1648,.1854,.3258,.4101,.4831,.2696,.1873,.4512,.3521,.5449,.4943,.0935,.1424,.1405,.3146,.1405,.5168,0,.5993-.603,1.0561-1.8089,1.3707-1.0861,.277-2.1722,.4157-3.2581,.4157-.2398,0-.3952-.0356-.4663-.1067-.0713-.0713-.1179-.2416-.1404-.5112-.0376-.382-.1724-.573-.4045-.573-.1274,0-.3258,.1124-.5954,.3371-.764,.6218-1.6142,.9325-2.5504,.9325-1.1611,0-2.2059-.4306-3.1345-1.292-.5469-.5168-.9887-1.1122-1.3257-1.7863-.4494-.8763-.6741-1.7639-.6741-2.6627,0-1.0561,.2921-2.0746,.8763-3.0559,.5393-.9061,1.2733-1.6028,2.202-2.0897,.7789-.4044,1.5466-.6067,2.3032-.6067,.8688,0,1.6477,.1948,2.3369,.5842,.1123,.06,.2022,.0899,.2696,.0899,.2396,0,.3595-.3219,.3595-.9662,0-.277-.0656-.4887-.1966-.6348-.1311-.146-.3651-.2714-.7022-.3764-.4719-.1498-.7078-.4118-.7078-.7864,0-.5467,.543-.9736,1.6291-1.2808,1.9173-.5317,3.202-.7977,3.8536-.7977,.6441,0,.9662,.3072,.9662,.9213Zm-6.1006,5.6512c-.487,0-.8726,.2584-1.1572,.7752-.382,.6892-.573,1.5954-.573,2.7189,0,1.0187,.1835,1.7864,.5505,2.3032,.2621,.3746,.6179,.5618,1.0673,.5618,.4868,0,.8407-.2826,1.0617-.8483,.2208-.5654,.3314-1.4774,.3314-2.7357,0-1.1534-.1311-1.9212-.3932-2.3032-.2022-.2995-.4982-.4568-.8876-.4719Zm.4463,17.2988H3.2697v-15.8165c0-7.0507,5.7362-12.787,12.787-12.787h28.6736v15.8164c0,7.0508-5.7362,12.787-12.787,12.787Zm-26.669-2.0046H31.9433c5.9454,0,10.7824-4.837,10.7824-10.7824V5.2743H16.0567c-5.9454,0-10.7824,4.837-10.7824,10.7824v13.8119Z" fill="#fff"/>
  </g>
</svg>